# xmcd
#
# Track frame offsets: 
#        150
#        11040
#        21392
#        37608
#        48038
#        62512
#        72028
#        86402
#        98181
#        112665
#        127921
#        138274
#        147889
#        159580
#
# Disc length: 2312 seconds
#
# Revision: 0
# Processed by: cddbd v1.4PL0 Copyright (c) Steve Scherf et al.
# Submitted via: ExactAudioCopy v0.90b4
#
DISCID=a309060e
DTITLE=Perry Como - Perry Como [1]
DYEAR=1999
DGENRE=
TTITLE0=Blue Skies
TTITLE1=I Love You
TTITLE2=Goodbye Sue
TTITLE3=Aren't You Glad You're You
TTITLE4=All Through The Day
TTITLE5=You Won't Be Satisfied (Until You Break My Heart)
TTITLE6=I'm Always Chasing Rainbows
TTITLE7=Love Letters
TTITLE8=Cynthia's In Love
TTITLE9=It's The Talk Of The Town
TTITLE10=You Must Have Been A Beautiful Baby
TTITLE11=It's Been A Long, Long Time
TTITLE12=Te Quiero Dijiste
TTITLE13=Don't Blame Me
EXTD=
EXTT0=
EXTT1=
EXTT2=
EXTT3=
EXTT4=
EXTT5=
EXTT6=
EXTT7=
EXTT8=
EXTT9=
EXTT10=
EXTT11=
EXTT12=
EXTT13=
PLAYORDER=
